<svg width="800px" height="800px" viewBox="0 0 24 24" xmlns="http://www.w3.org/2000/svg">
    <defs>
        <linearGradient id="linearGradient" x1="0%" y1="0%" x2="100%" y2="100%">
            <stop offset="0%" stop-color="#A8F5A2"/>
            <stop offset="40%" stop-color="#22C55E"/>
            <stop offset="100%" stop-color="#065F46"/>
        </linearGradient>
    </defs>
    <g>
        <path fill="url(#linearGradient)"
              d="M13 4.055c4.5.497 8 4.312 8 8.945v9H3v-9c0-4.633 3.5-8.448 8-8.945V1h2v3.055zM12 18a5 5 0 1 0 0-10 5 5 0 0 0 0 10zm0-2a3 3 0 1 1 0-6 3 3 0 0 1 0 6zm0-2a1 1 0 1 0 0-2 1 1 0 0 0 0 2z"/>
    </g>
</svg>